<svg xmlns="http://www.w3.org/2000/svg" version="1.1" xmlns:xlink="http://www.w3.org/1999/xlink" xmlns:svgjs="http://svgjs.dev/svgjs" width="1440" height="560" preserveAspectRatio="none" viewBox="0 0 1440 560"><g mask="url(&quot;#SvgjsMask1000&quot;)" fill="none"><rect width="1440" height="560" x="0" y="0" fill="#0e2a47"></rect><path d="M 0,8 C 57.6,52.2 172.8,222 288,229 C 403.2,236 460.8,50 576,43 C 691.2,36 748.8,194.8 864,194 C 979.2,193.2 1036.8,28.6 1152,39 C 1267.2,49.4 1382.4,204.6 1440,246L1440 560L0 560z" fill="#184a7e"></path><path d="M 0,413 C 96,425.2 288,497.6 480,474 C 672,450.4 768,282.4 960,295 C 1152,307.6 1344,488.6 1440,537L1440 560L0 560z" fill="#2264ab"></path></g><defs><mask id="SvgjsMask1000"><rect width="1440" height="560" fill="#ffffff"></rect></mask></defs></svg>